<mxfile host="app.diagrams.net" modified="2024-02-27T09:02:10.360Z" agent="Mozilla/5.0 (Macintosh; Intel Mac OS X 10_15_7) AppleWebKit/537.36 (KHTML, like Gecko) Chrome/122.0.0.0 Safari/537.36" version="23.1.7" etag="e5JQrJZ1__DgxWJ3_ZW9" type="github">
  <diagram name="Page-1" id="uSl8sosg0sHh0WAQL8kz">
    <mxGraphModel>
      <root>
        <mxCell id="0" />
        <mxCell id="1" parent="0" />
      </root>
    </mxGraphModel>
  </diagram>
</mxfile>
